<mxfile host="app.diagrams.net" agent="Mozilla/5.0 (Windows NT 10.0; Win64; x64) AppleWebKit/537.36 (KHTML, like Gecko) Chrome/129.0.0.0 Safari/537.36" version="24.7.17">
  <diagram name="Side-1" id="E_oPWn_IN8EQOlV64v-v">
    <mxGraphModel dx="2086" dy="662" grid="1" gridSize="5" guides="1" tooltips="1" connect="1" arrows="1" fold="1" page="1" pageScale="1" pageWidth="827" pageHeight="1169" math="0" shadow="0">
      <root>
        <mxCell id="0" />
        <mxCell id="1" parent="0" />
        <mxCell id="v01I_TzkL8D9j50CKtlL-1" value="&lt;font style=&quot;font-size: 26px;&quot;&gt;Analog &lt;/font&gt;&lt;font style=&quot;font-size: 26px;&quot;&gt;Front &lt;/font&gt;&lt;font style=&quot;font-size: 26px;&quot;&gt;End&lt;/font&gt;" style="swimlane;whiteSpace=wrap;html=1;startSize=70;strokeWidth=2;fillColor=#dae8fc;strokeColor=#6c8ebf;fontSize=26;" parent="1" vertex="1">
          <mxGeometry x="-290" y="30" width="660" height="630" as="geometry" />
        </mxCell>
        <mxCell id="v01I_TzkL8D9j50CKtlL-22" style="edgeStyle=orthogonalEdgeStyle;rounded=0;orthogonalLoop=1;jettySize=auto;html=1;endArrow=none;endFill=0;strokeWidth=2;" parent="v01I_TzkL8D9j50CKtlL-1" source="v01I_TzkL8D9j50CKtlL-2" edge="1">
          <mxGeometry relative="1" as="geometry">
            <mxPoint x="690" y="115" as="targetPoint" />
          </mxGeometry>
        </mxCell>
        <mxCell id="v01I_TzkL8D9j50CKtlL-2" value="&lt;font style=&quot;font-size: 24px;&quot;&gt;ADC&lt;/font&gt;" style="shape=offPageConnector;whiteSpace=wrap;html=1;direction=south;fontSize=24;" parent="v01I_TzkL8D9j50CKtlL-1" vertex="1">
          <mxGeometry x="550" y="90" width="80" height="50" as="geometry" />
        </mxCell>
        <mxCell id="v01I_TzkL8D9j50CKtlL-37" style="edgeStyle=orthogonalEdgeStyle;rounded=0;orthogonalLoop=1;jettySize=auto;html=1;endArrow=none;endFill=0;startArrow=classic;startFill=1;strokeWidth=2;" parent="v01I_TzkL8D9j50CKtlL-1" source="v01I_TzkL8D9j50CKtlL-3" edge="1">
          <mxGeometry relative="1" as="geometry">
            <mxPoint x="690" y="494" as="targetPoint" />
          </mxGeometry>
        </mxCell>
        <mxCell id="v01I_TzkL8D9j50CKtlL-41" style="edgeStyle=orthogonalEdgeStyle;rounded=0;orthogonalLoop=1;jettySize=auto;html=1;exitX=1.006;exitY=0.35;exitDx=0;exitDy=0;exitPerimeter=0;endArrow=none;endFill=0;startArrow=classic;startFill=1;strokeWidth=2;" parent="v01I_TzkL8D9j50CKtlL-1" source="v01I_TzkL8D9j50CKtlL-3" edge="1">
          <mxGeometry relative="1" as="geometry">
            <mxPoint x="690" y="570" as="targetPoint" />
            <Array as="points">
              <mxPoint x="602" y="570" />
            </Array>
          </mxGeometry>
        </mxCell>
        <mxCell id="v01I_TzkL8D9j50CKtlL-3" value="&lt;font style=&quot;font-size: 24px;&quot;&gt;DAC&lt;/font&gt;" style="shape=offPageConnector;whiteSpace=wrap;html=1;direction=south;fontSize=24;" parent="v01I_TzkL8D9j50CKtlL-1" vertex="1">
          <mxGeometry x="550" y="469" width="80" height="50" as="geometry" />
        </mxCell>
        <mxCell id="v01I_TzkL8D9j50CKtlL-4" style="edgeStyle=orthogonalEdgeStyle;rounded=0;orthogonalLoop=1;jettySize=auto;html=1;entryX=0.5;entryY=1;entryDx=0;entryDy=0;strokeWidth=2;exitX=1;exitY=0.5;exitDx=0;exitDy=0;fontSize=26;" parent="v01I_TzkL8D9j50CKtlL-1" source="v01I_TzkL8D9j50CKtlL-11" target="v01I_TzkL8D9j50CKtlL-2" edge="1">
          <mxGeometry relative="1" as="geometry">
            <mxPoint x="320" y="520" as="sourcePoint" />
            <Array as="points">
              <mxPoint x="321" y="510" />
              <mxPoint x="140" y="510" />
              <mxPoint x="140" y="115" />
            </Array>
          </mxGeometry>
        </mxCell>
        <mxCell id="v01I_TzkL8D9j50CKtlL-5" value="&lt;font style=&quot;font-size: 22px;&quot;&gt;&amp;nbsp;Voltage&amp;nbsp;&lt;/font&gt;" style="edgeLabel;html=1;align=center;verticalAlign=middle;resizable=0;points=[];" parent="v01I_TzkL8D9j50CKtlL-4" vertex="1" connectable="0">
          <mxGeometry x="0.3528" y="2" relative="1" as="geometry">
            <mxPoint as="offset" />
          </mxGeometry>
        </mxCell>
        <mxCell id="v01I_TzkL8D9j50CKtlL-6" value="&lt;font style=&quot;font-size: 22px;&quot;&gt;&amp;nbsp;Voltage&amp;nbsp;&lt;/font&gt;" style="edgeLabel;html=1;align=center;verticalAlign=middle;resizable=0;points=[];" parent="v01I_TzkL8D9j50CKtlL-4" vertex="1" connectable="0">
          <mxGeometry x="-0.6744" y="1" relative="1" as="geometry">
            <mxPoint x="41" y="-1" as="offset" />
          </mxGeometry>
        </mxCell>
        <mxCell id="v01I_TzkL8D9j50CKtlL-7" style="edgeStyle=orthogonalEdgeStyle;rounded=0;orthogonalLoop=1;jettySize=auto;html=1;entryX=0.109;entryY=0.71;entryDx=0;entryDy=0;entryPerimeter=0;endArrow=none;endFill=0;strokeWidth=2;fontSize=26;" parent="v01I_TzkL8D9j50CKtlL-1" source="v01I_TzkL8D9j50CKtlL-10" target="v01I_TzkL8D9j50CKtlL-3" edge="1">
          <mxGeometry relative="1" as="geometry" />
        </mxCell>
        <mxCell id="v01I_TzkL8D9j50CKtlL-8" style="edgeStyle=orthogonalEdgeStyle;rounded=0;orthogonalLoop=1;jettySize=auto;html=1;exitX=1;exitY=0.5;exitDx=0;exitDy=0;exitPerimeter=0;entryX=0;entryY=0.75;entryDx=0;entryDy=0;strokeWidth=2;endArrow=none;endFill=0;fontSize=26;" parent="v01I_TzkL8D9j50CKtlL-1" source="v01I_TzkL8D9j50CKtlL-10" target="v01I_TzkL8D9j50CKtlL-15" edge="1">
          <mxGeometry relative="1" as="geometry">
            <Array as="points">
              <mxPoint x="520" y="351" />
            </Array>
          </mxGeometry>
        </mxCell>
        <mxCell id="v01I_TzkL8D9j50CKtlL-9" style="edgeStyle=orthogonalEdgeStyle;rounded=0;orthogonalLoop=1;jettySize=auto;html=1;exitX=0;exitY=0.5;exitDx=0;exitDy=0;exitPerimeter=0;entryX=0;entryY=0.25;entryDx=0;entryDy=0;endArrow=none;endFill=0;strokeWidth=2;fontSize=26;" parent="v01I_TzkL8D9j50CKtlL-1" source="v01I_TzkL8D9j50CKtlL-10" target="v01I_TzkL8D9j50CKtlL-15" edge="1">
          <mxGeometry relative="1" as="geometry">
            <Array as="points">
              <mxPoint x="420" y="400" />
              <mxPoint x="386" y="400" />
            </Array>
          </mxGeometry>
        </mxCell>
        <mxCell id="v01I_TzkL8D9j50CKtlL-27" style="edgeStyle=orthogonalEdgeStyle;rounded=0;orthogonalLoop=1;jettySize=auto;html=1;startArrow=classic;startFill=1;endArrow=none;endFill=0;strokeWidth=2;exitX=0.54;exitY=-0.149;exitDx=0;exitDy=0;exitPerimeter=0;" parent="v01I_TzkL8D9j50CKtlL-1" source="v01I_TzkL8D9j50CKtlL-10" edge="1">
          <mxGeometry relative="1" as="geometry">
            <mxPoint x="690" y="210" as="targetPoint" />
            <Array as="points">
              <mxPoint x="474" y="210" />
            </Array>
          </mxGeometry>
        </mxCell>
        <mxCell id="v01I_TzkL8D9j50CKtlL-44" style="edgeStyle=orthogonalEdgeStyle;rounded=0;orthogonalLoop=1;jettySize=auto;html=1;endArrow=none;endFill=0;strokeWidth=2;" parent="v01I_TzkL8D9j50CKtlL-1" source="v01I_TzkL8D9j50CKtlL-10" edge="1">
          <mxGeometry relative="1" as="geometry">
            <mxPoint x="63" y="651" as="targetPoint" />
          </mxGeometry>
        </mxCell>
        <mxCell id="v01I_TzkL8D9j50CKtlL-10" value="" style="pointerEvents=1;verticalLabelPosition=bottom;shadow=0;dashed=0;align=center;html=1;verticalAlign=top;shape=mxgraph.electrical.resistors.resistor_2;strokeWidth=2;" parent="v01I_TzkL8D9j50CKtlL-1" vertex="1">
          <mxGeometry x="420" y="464" width="100" height="20" as="geometry" />
        </mxCell>
        <mxCell id="v01I_TzkL8D9j50CKtlL-52" style="edgeStyle=orthogonalEdgeStyle;rounded=0;orthogonalLoop=1;jettySize=auto;html=1;exitX=0;exitY=0.25;exitDx=0;exitDy=0;endArrow=none;endFill=0;startArrow=classic;startFill=1;strokeWidth=2;" parent="v01I_TzkL8D9j50CKtlL-1" source="v01I_TzkL8D9j50CKtlL-11" edge="1">
          <mxGeometry relative="1" as="geometry">
            <mxPoint x="214" y="665" as="targetPoint" />
            <Array as="points">
              <mxPoint x="296" y="642" />
              <mxPoint x="214" y="642" />
            </Array>
          </mxGeometry>
        </mxCell>
        <mxCell id="v01I_TzkL8D9j50CKtlL-53" style="edgeStyle=orthogonalEdgeStyle;rounded=0;orthogonalLoop=1;jettySize=auto;html=1;exitX=0;exitY=0.75;exitDx=0;exitDy=0;endArrow=none;endFill=0;startArrow=classic;startFill=1;strokeWidth=2;" parent="v01I_TzkL8D9j50CKtlL-1" source="v01I_TzkL8D9j50CKtlL-11" edge="1">
          <mxGeometry relative="1" as="geometry">
            <mxPoint x="430" y="666" as="targetPoint" />
            <Array as="points">
              <mxPoint x="346" y="642" />
              <mxPoint x="430" y="642" />
            </Array>
          </mxGeometry>
        </mxCell>
        <mxCell id="v01I_TzkL8D9j50CKtlL-11" value="" style="triangle;whiteSpace=wrap;html=1;rotation=90;direction=west;" parent="v01I_TzkL8D9j50CKtlL-1" vertex="1">
          <mxGeometry x="283.75" y="519" width="75" height="100" as="geometry" />
        </mxCell>
        <mxCell id="v01I_TzkL8D9j50CKtlL-12" value="+" style="text;html=1;align=center;verticalAlign=middle;resizable=0;points=[];autosize=1;strokeColor=none;fillColor=none;" parent="v01I_TzkL8D9j50CKtlL-1" vertex="1">
          <mxGeometry x="281" y="579" width="30" height="30" as="geometry" />
        </mxCell>
        <mxCell id="v01I_TzkL8D9j50CKtlL-13" style="edgeStyle=orthogonalEdgeStyle;rounded=0;orthogonalLoop=1;jettySize=auto;html=1;entryX=0.5;entryY=1;entryDx=0;entryDy=0;strokeWidth=2;fontSize=26;" parent="v01I_TzkL8D9j50CKtlL-1" source="v01I_TzkL8D9j50CKtlL-15" target="v01I_TzkL8D9j50CKtlL-19" edge="1">
          <mxGeometry relative="1" as="geometry">
            <Array as="points">
              <mxPoint x="260" y="376" />
              <mxPoint x="260" y="165" />
            </Array>
          </mxGeometry>
        </mxCell>
        <mxCell id="v01I_TzkL8D9j50CKtlL-14" value="&lt;font style=&quot;font-size: 22px;&quot;&gt;Current&lt;/font&gt;" style="edgeLabel;html=1;align=center;verticalAlign=middle;resizable=0;points=[];" parent="v01I_TzkL8D9j50CKtlL-13" vertex="1" connectable="0">
          <mxGeometry x="0.3148" y="-1" relative="1" as="geometry">
            <mxPoint as="offset" />
          </mxGeometry>
        </mxCell>
        <mxCell id="v01I_TzkL8D9j50CKtlL-15" value="" style="triangle;whiteSpace=wrap;html=1;rotation=90;direction=south;" parent="v01I_TzkL8D9j50CKtlL-1" vertex="1">
          <mxGeometry x="299.25" y="339.25" width="98.5" height="72.5" as="geometry" />
        </mxCell>
        <mxCell id="v01I_TzkL8D9j50CKtlL-16" value="-" style="text;html=1;align=center;verticalAlign=middle;resizable=0;points=[];autosize=1;strokeColor=none;fillColor=none;" parent="v01I_TzkL8D9j50CKtlL-1" vertex="1">
          <mxGeometry x="334.5" y="579" width="30" height="30" as="geometry" />
        </mxCell>
        <mxCell id="v01I_TzkL8D9j50CKtlL-17" value="+" style="text;html=1;align=center;verticalAlign=middle;resizable=0;points=[];autosize=1;strokeColor=none;fillColor=none;" parent="v01I_TzkL8D9j50CKtlL-1" vertex="1">
          <mxGeometry x="358.75" y="336" width="30" height="30" as="geometry" />
        </mxCell>
        <mxCell id="v01I_TzkL8D9j50CKtlL-18" value="-" style="text;html=1;align=center;verticalAlign=middle;resizable=0;points=[];autosize=1;strokeColor=none;fillColor=none;" parent="v01I_TzkL8D9j50CKtlL-1" vertex="1">
          <mxGeometry x="358.75" y="383.5" width="30" height="30" as="geometry" />
        </mxCell>
        <mxCell id="v01I_TzkL8D9j50CKtlL-24" style="edgeStyle=orthogonalEdgeStyle;rounded=0;orthogonalLoop=1;jettySize=auto;html=1;endArrow=none;endFill=0;strokeWidth=2;" parent="v01I_TzkL8D9j50CKtlL-1" source="v01I_TzkL8D9j50CKtlL-19" edge="1">
          <mxGeometry relative="1" as="geometry">
            <mxPoint x="690" y="165" as="targetPoint" />
          </mxGeometry>
        </mxCell>
        <mxCell id="v01I_TzkL8D9j50CKtlL-19" value="&lt;font style=&quot;font-size: 24px;&quot;&gt;ADC&lt;/font&gt;" style="shape=offPageConnector;whiteSpace=wrap;html=1;direction=south;fontSize=24;" parent="v01I_TzkL8D9j50CKtlL-1" vertex="1">
          <mxGeometry x="550" y="140" width="80" height="50" as="geometry" />
        </mxCell>
        <mxCell id="v01I_TzkL8D9j50CKtlL-20" value="&lt;font style=&quot;font-size: 22px;&quot;&gt;Range&lt;br&gt;Resistors&lt;/font&gt;" style="text;html=1;align=center;verticalAlign=middle;resizable=0;points=[];autosize=1;strokeColor=none;fillColor=none;" parent="v01I_TzkL8D9j50CKtlL-1" vertex="1">
          <mxGeometry x="410" y="484" width="120" height="70" as="geometry" />
        </mxCell>
        <mxCell id="v01I_TzkL8D9j50CKtlL-21" value="&lt;font style=&quot;font-size: 22px;&quot;&gt;&amp;nbsp;Range Selection&amp;nbsp;&lt;br&gt;(Current Only)&lt;/font&gt;" style="edgeLabel;html=1;align=center;verticalAlign=middle;resizable=0;points=[];" parent="1" vertex="1" connectable="0">
          <mxGeometry x="179.57677395882956" y="278.22863584041716" as="geometry" />
        </mxCell>
        <mxCell id="v01I_TzkL8D9j50CKtlL-28" value="" style="shape=offPageConnector;whiteSpace=wrap;html=1;rotation=-90;size=0.17777777777777778;" parent="1" vertex="1">
          <mxGeometry x="414" y="123" width="16" height="45" as="geometry" />
        </mxCell>
        <mxCell id="v01I_TzkL8D9j50CKtlL-29" value="" style="shape=offPageConnector;whiteSpace=wrap;html=1;rotation=-90;size=0.15555555555555556;" parent="1" vertex="1">
          <mxGeometry x="414" y="172" width="16" height="45" as="geometry" />
        </mxCell>
        <mxCell id="v01I_TzkL8D9j50CKtlL-30" value="" style="shape=offPageConnector;whiteSpace=wrap;html=1;rotation=90;size=0.15555555555555556;" parent="1" vertex="1">
          <mxGeometry x="412" y="217" width="16" height="45" as="geometry" />
        </mxCell>
        <mxCell id="v01I_TzkL8D9j50CKtlL-31" value="&lt;font style=&quot;font-size: 18px;&quot;&gt;ADC Voltage&lt;br style=&quot;font-size: 18px;&quot;&gt;(To FPGA)&lt;/font&gt;" style="text;html=1;align=center;verticalAlign=middle;resizable=0;points=[];autosize=1;strokeColor=none;fillColor=none;fontSize=18;" parent="1" vertex="1">
          <mxGeometry x="454.5" y="105" width="122" height="56" as="geometry" />
        </mxCell>
        <mxCell id="v01I_TzkL8D9j50CKtlL-34" value="&lt;font style=&quot;font-size: 18px;&quot;&gt;ADC Current&lt;br style=&quot;font-size: 18px;&quot;&gt;(To FPGA)&lt;/font&gt;" style="text;html=1;align=center;verticalAlign=middle;resizable=0;points=[];autosize=1;strokeColor=none;fillColor=none;fontSize=18;" parent="1" vertex="1">
          <mxGeometry x="454.5" y="166.5" width="122" height="56" as="geometry" />
        </mxCell>
        <mxCell id="v01I_TzkL8D9j50CKtlL-35" value="&lt;font style=&quot;font-size: 18px;&quot;&gt;Range Selection&lt;br style=&quot;font-size: 18px;&quot;&gt;(From FPGA)&lt;/font&gt;" style="text;html=1;align=center;verticalAlign=middle;resizable=0;points=[];autosize=1;strokeColor=none;fillColor=none;fontSize=18;" parent="1" vertex="1">
          <mxGeometry x="448" y="230" width="151" height="56" as="geometry" />
        </mxCell>
        <mxCell id="v01I_TzkL8D9j50CKtlL-38" value="" style="shape=offPageConnector;whiteSpace=wrap;html=1;rotation=90;size=0.13333333333333333;" parent="1" vertex="1">
          <mxGeometry x="412" y="501" width="16" height="45" as="geometry" />
        </mxCell>
        <mxCell id="v01I_TzkL8D9j50CKtlL-39" value="&lt;font style=&quot;font-size: 18px;&quot;&gt;DAC Setting&lt;br style=&quot;font-size: 18px;&quot;&gt;(From FPGA)&lt;/font&gt;" style="text;html=1;align=center;verticalAlign=middle;resizable=0;points=[];autosize=1;strokeColor=none;fillColor=none;fontSize=18;" parent="1" vertex="1">
          <mxGeometry x="444" y="480" width="127" height="56" as="geometry" />
        </mxCell>
        <mxCell id="v01I_TzkL8D9j50CKtlL-42" value="" style="shape=offPageConnector;whiteSpace=wrap;html=1;rotation=90;size=0.15555555555555556;" parent="1" vertex="1">
          <mxGeometry x="412" y="577" width="16" height="45" as="geometry" />
        </mxCell>
        <mxCell id="v01I_TzkL8D9j50CKtlL-43" value="&lt;font style=&quot;font-size: 18px;&quot;&gt;DC Bias&lt;br style=&quot;font-size: 18px;&quot;&gt;(From MCU)&lt;/font&gt;" style="text;html=1;align=center;verticalAlign=middle;resizable=0;points=[];autosize=1;strokeColor=none;fillColor=none;fontSize=18;" parent="1" vertex="1">
          <mxGeometry x="448" y="585" width="119" height="56" as="geometry" />
        </mxCell>
        <mxCell id="v01I_TzkL8D9j50CKtlL-46" value="" style="shape=offPageConnector;whiteSpace=wrap;html=1;rotation=0;size=0.1111111111111111;" parent="1" vertex="1">
          <mxGeometry x="-235" y="680" width="16" height="45" as="geometry" />
        </mxCell>
        <mxCell id="v01I_TzkL8D9j50CKtlL-47" value="&lt;font style=&quot;font-size: 18px;&quot;&gt;H&lt;sub style=&quot;font-size: 18px;&quot;&gt;Cur&lt;/sub&gt;&lt;br style=&quot;font-size: 18px;&quot;&gt;(To Kelvin Connection)&lt;/font&gt;" style="text;html=1;align=center;verticalAlign=middle;resizable=0;points=[];autosize=1;strokeColor=none;fillColor=none;rotation=-45;fontSize=18;" parent="1" vertex="1">
          <mxGeometry x="-353" y="724" width="200" height="61" as="geometry" />
        </mxCell>
        <mxCell id="v01I_TzkL8D9j50CKtlL-50" value="&lt;font style=&quot;font-size: 18px;&quot;&gt;L&lt;sub style=&quot;font-size: 18px;&quot;&gt;Cur&lt;/sub&gt;&lt;br style=&quot;font-size: 18px;&quot;&gt;(From Kelvin Connection)&lt;/font&gt;" style="text;html=1;align=center;verticalAlign=middle;resizable=0;points=[];autosize=1;strokeColor=none;fillColor=none;rotation=-45;fontSize=18;" parent="1" vertex="1">
          <mxGeometry x="112" y="724" width="223" height="61" as="geometry" />
        </mxCell>
        <mxCell id="v01I_TzkL8D9j50CKtlL-54" value="" style="shape=offPageConnector;whiteSpace=wrap;html=1;rotation=-180;size=0.08888888888888889;" parent="1" vertex="1">
          <mxGeometry x="132" y="679" width="16" height="45" as="geometry" />
        </mxCell>
        <mxCell id="v01I_TzkL8D9j50CKtlL-48" style="edgeStyle=orthogonalEdgeStyle;rounded=0;orthogonalLoop=1;jettySize=auto;html=1;strokeWidth=2;endArrow=none;endFill=0;startArrow=classic;startFill=1;exitX=0.858;exitY=0.729;exitDx=0;exitDy=0;exitPerimeter=0;entryX=0.462;entryY=0.957;entryDx=0;entryDy=0;entryPerimeter=0;" parent="1" source="v01I_TzkL8D9j50CKtlL-3" target="v01I_TzkL8D9j50CKtlL-49" edge="1">
          <mxGeometry relative="1" as="geometry">
            <mxPoint x="253" y="679" as="targetPoint" />
            <Array as="points">
              <mxPoint x="253" y="542" />
            </Array>
          </mxGeometry>
        </mxCell>
        <mxCell id="v01I_TzkL8D9j50CKtlL-49" value="" style="shape=offPageConnector;whiteSpace=wrap;html=1;rotation=-180;size=0.1111111111111111;" parent="1" vertex="1">
          <mxGeometry x="244" y="680" width="16" height="45" as="geometry" />
        </mxCell>
        <mxCell id="v01I_TzkL8D9j50CKtlL-56" value="" style="shape=offPageConnector;whiteSpace=wrap;html=1;rotation=-180;size=0.08888888888888889;" parent="1" vertex="1">
          <mxGeometry x="-84" y="679" width="16" height="45" as="geometry" />
        </mxCell>
        <mxCell id="v01I_TzkL8D9j50CKtlL-57" value="&lt;font style=&quot;font-size: 18px;&quot;&gt;H&lt;sub style=&quot;font-size: 18px;&quot;&gt;Pot&lt;/sub&gt;&lt;br style=&quot;font-size: 18px;&quot;&gt;(From Kelvin Connection)&lt;/font&gt;" style="text;html=1;align=center;verticalAlign=middle;resizable=0;points=[];autosize=1;strokeColor=none;fillColor=none;rotation=-45;fontSize=18;" parent="1" vertex="1">
          <mxGeometry x="-210" y="725" width="223" height="61" as="geometry" />
        </mxCell>
        <mxCell id="v01I_TzkL8D9j50CKtlL-58" value="&lt;font style=&quot;font-size: 18px;&quot;&gt;L&lt;sub style=&quot;font-size: 18px;&quot;&gt;Pot&lt;/sub&gt;&lt;br style=&quot;font-size: 18px;&quot;&gt;(From Kelvin Connection)&lt;/font&gt;" style="text;html=1;align=center;verticalAlign=middle;resizable=0;points=[];autosize=1;strokeColor=none;fillColor=none;rotation=-45;fontSize=18;" parent="1" vertex="1">
          <mxGeometry x="3" y="725" width="223" height="61" as="geometry" />
        </mxCell>
      </root>
    </mxGraphModel>
  </diagram>
</mxfile>
